<?xml version="1.0" encoding="UTF-8" standalone="no"?>
<!DOCTYPE svg PUBLIC "-//W3C//DTD SVG 1.1//EN"
 "http://www.w3.org/Graphics/SVG/1.1/DTD/svg11.dtd">
<!-- Generated by graphviz version 2.40.1 (20161225.0304)
 -->
<!-- Title: dependencies Pages: 1 -->
<svg width="504pt" height="284pt"
 viewBox="0.00 0.00 504.00 284.00" xmlns="http://www.w3.org/2000/svg" xmlns:xlink="http://www.w3.org/1999/xlink">
<g id="graph0" class="graph" transform="scale(1 1) rotate(0) translate(4 280)">
<title>dependencies</title>
<polygon fill="#ffffff" stroke="transparent" points="-4,4 -4,-280 500,-280 500,4 -4,4"/>
<text text-anchor="start" x="227.0091" y="-42.4" font-family="sans-serif" font-weight="bold" font-size="14.00" fill="#000000">Legend</text>
<polygon fill="#ffffb3" stroke="transparent" points="14,-10 14,-30 34,-30 34,-10 14,-10"/>
<text text-anchor="start" x="37.629" y="-15.4" font-family="sans-serif" font-size="14.00" fill="#000000"> &#160;Declarations</text>
<polygon fill="#8dd3c7" stroke="transparent" points="127,-10 127,-30 147,-30 147,-10 127,-10"/>
<text text-anchor="start" x="150.7251" y="-15.4" font-family="sans-serif" font-size="14.00" fill="#000000"> &#160;Module</text>
<polygon fill="#80b1d3" stroke="transparent" points="213,-10 213,-30 233,-30 233,-10 213,-10"/>
<text text-anchor="start" x="236.7812" y="-15.4" font-family="sans-serif" font-size="14.00" fill="#000000"> &#160;Bootstrap</text>
<polygon fill="#fdb462" stroke="transparent" points="310,-10 310,-30 330,-30 330,-10 310,-10"/>
<text text-anchor="start" x="333.6732" y="-15.4" font-family="sans-serif" font-size="14.00" fill="#000000"> &#160;Providers</text>
<polygon fill="#fb8072" stroke="transparent" points="406,-10 406,-30 426,-30 426,-10 406,-10"/>
<text text-anchor="start" x="429.7258" y="-15.4" font-family="sans-serif" font-size="14.00" fill="#000000"> &#160;Exports</text>
<g id="clust1" class="cluster">
<title>cluster_AppModule</title>
<polygon fill="none" stroke="#000000" stroke-dasharray="1,5" points="75,-70 75,-268 215,-268 215,-70 75,-70"/>
</g>
<g id="clust2" class="cluster">
<title>cluster_AppModule_declarations</title>
<polygon fill="none" stroke="#000000" points="84,-78 84,-130 206,-130 206,-78 84,-78"/>
</g>
<g id="clust6" class="cluster">
<title>cluster_AppModule_bootstrap</title>
<polygon fill="none" stroke="#000000" points="83,-208 83,-260 207,-260 207,-208 83,-208"/>
</g>
<g id="clust8" class="cluster">
<title>cluster_CountryPickerModule</title>
<polygon fill="none" stroke="#000000" stroke-dasharray="1,5" points="223,-70 223,-268 421,-268 421,-70 223,-70"/>
</g>
<g id="clust9" class="cluster">
<title>cluster_CountryPickerModule_declarations</title>
<polygon fill="none" stroke="#000000" points="233,-78 233,-130 411,-130 411,-78 233,-78"/>
</g>
<g id="clust12" class="cluster">
<title>cluster_CountryPickerModule_exports</title>
<polygon fill="none" stroke="#000000" points="231,-208 231,-260 413,-260 413,-208 231,-208"/>
</g>
<!-- AppComponent -->
<g id="node1" class="node">
<title>AppComponent</title>
<polygon fill="#ffffb3" stroke="#000000" points="197.9399,-122 92.0601,-122 92.0601,-86 197.9399,-86 197.9399,-122"/>
<text text-anchor="middle" x="145" y="-99.8" font-family="Times,serif" font-size="14.00" fill="#000000">AppComponent</text>
</g>
<!-- AppModule -->
<g id="node2" class="node">
<title>AppModule</title>
<polygon fill="#8dd3c7" stroke="#000000" points="186.6571,-187 183.6571,-191 162.6571,-191 159.6571,-187 103.3429,-187 103.3429,-151 186.6571,-151 186.6571,-187"/>
<text text-anchor="middle" x="145" y="-164.8" font-family="Times,serif" font-size="14.00" fill="#000000">AppModule</text>
</g>
<!-- AppComponent&#45;&gt;AppModule -->
<g id="edge1" class="edge">
<title>AppComponent&#45;&gt;AppModule</title>
<path fill="none" stroke="#000000" d="M145,-122.1061C145,-122.1061 145,-140.991 145,-140.991"/>
<polygon fill="#000000" stroke="#000000" points="141.5001,-140.9909 145,-150.991 148.5001,-140.991 141.5001,-140.9909"/>
</g>
<!-- AppComponent  -->
<g id="node3" class="node">
<title>AppComponent </title>
<polygon fill="#80b1d3" stroke="#000000" points="199.439,-252 90.561,-252 90.561,-216 199.439,-216 199.439,-252"/>
<text text-anchor="middle" x="145" y="-229.8" font-family="Times,serif" font-size="14.00" fill="#000000">AppComponent </text>
</g>
<!-- AppModule&#45;&gt;AppComponent  -->
<g id="edge2" class="edge">
<title>AppModule&#45;&gt;AppComponent </title>
<path fill="none" stroke="#000000" stroke-dasharray="1,5" d="M145,-187.1061C145,-187.1061 145,-205.991 145,-205.991"/>
<polygon fill="#000000" stroke="#000000" points="141.5001,-205.9909 145,-215.991 148.5001,-205.991 141.5001,-205.9909"/>
</g>
<!-- CountryPickerComponent -->
<g id="node4" class="node">
<title>CountryPickerComponent</title>
<polygon fill="#ffffb3" stroke="#000000" points="403.4832,-122 240.5168,-122 240.5168,-86 403.4832,-86 403.4832,-122"/>
<text text-anchor="middle" x="322" y="-99.8" font-family="Times,serif" font-size="14.00" fill="#000000">CountryPickerComponent</text>
</g>
<!-- CountryPickerModule -->
<g id="node5" class="node">
<title>CountryPickerModule</title>
<polygon fill="#8dd3c7" stroke="#000000" points="392.7007,-187 389.7007,-191 368.7007,-191 365.7007,-187 251.2993,-187 251.2993,-151 392.7007,-151 392.7007,-187"/>
<text text-anchor="middle" x="322" y="-164.8" font-family="Times,serif" font-size="14.00" fill="#000000">CountryPickerModule</text>
</g>
<!-- CountryPickerComponent&#45;&gt;CountryPickerModule -->
<g id="edge3" class="edge">
<title>CountryPickerComponent&#45;&gt;CountryPickerModule</title>
<path fill="none" stroke="#000000" d="M322,-122.1061C322,-122.1061 322,-140.991 322,-140.991"/>
<polygon fill="#000000" stroke="#000000" points="318.5001,-140.9909 322,-150.991 325.5001,-140.991 318.5001,-140.9909"/>
</g>
<!-- CountryPickerComponent  -->
<g id="node6" class="node">
<title>CountryPickerComponent </title>
<polygon fill="#fb8072" stroke="#000000" points="405.4839,-252 238.5161,-252 238.5161,-216 405.4839,-216 405.4839,-252"/>
<text text-anchor="middle" x="322" y="-229.8" font-family="Times,serif" font-size="14.00" fill="#000000">CountryPickerComponent </text>
</g>
<!-- CountryPickerModule&#45;&gt;CountryPickerComponent  -->
<g id="edge4" class="edge">
<title>CountryPickerModule&#45;&gt;CountryPickerComponent </title>
<path fill="none" stroke="#000000" stroke-dasharray="5,2" d="M322,-187.1061C322,-187.1061 322,-205.991 322,-205.991"/>
<polygon fill="#000000" stroke="#000000" points="318.5001,-205.9909 322,-215.991 325.5001,-205.991 318.5001,-205.9909"/>
</g>
</g>
</svg>
