<?xml version="1.0" encoding="UTF-8" standalone="no"?>
<!DOCTYPE svg PUBLIC "-//W3C//DTD SVG 1.1//EN"
 "http://www.w3.org/Graphics/SVG/1.1/DTD/svg11.dtd">
<!-- Generated by graphviz version 5.0.0 (20220707.1540)
 -->
<!-- Title: dependencies Pages: 1 -->
<svg width="222pt" height="247pt"
 viewBox="0.00 0.00 222.00 246.80" xmlns="http://www.w3.org/2000/svg" xmlns:xlink="http://www.w3.org/1999/xlink">
<g id="graph0" class="graph" transform="scale(1 1) rotate(0) translate(4 242.8)">
<title>dependencies</title>
<polygon fill="white" stroke="transparent" points="-4,4 -4,-242.8 218,-242.8 218,4 -4,4"/>
<text text-anchor="middle" x="107" y="-8.2" font-family="sans-serif" font-size="14.00">dependencies</text>
<g id="clust1" class="cluster">
<title>cluster_CountryPickerModule</title>
<polygon fill="none" stroke="black" stroke-dasharray="1,5" points="8,-32.8 8,-230.8 206,-230.8 206,-32.8 8,-32.8"/>
</g>
<g id="clust2" class="cluster">
<title>cluster_CountryPickerModule_declarations</title>
<polygon fill="none" stroke="black" points="18,-40.8 18,-92.8 196,-92.8 196,-40.8 18,-40.8"/>
</g>
<g id="clust5" class="cluster">
<title>cluster_CountryPickerModule_exports</title>
<polygon fill="none" stroke="black" points="16,-170.8 16,-222.8 198,-222.8 198,-170.8 16,-170.8"/>
</g>
<!-- CountryPickerComponent -->
<g id="node1" class="node">
<title>CountryPickerComponent</title>
<polygon fill="#ffffb3" stroke="black" points="188.49,-84.8 25.51,-84.8 25.51,-48.8 188.49,-48.8 188.49,-84.8"/>
<text text-anchor="middle" x="107" y="-62.6" font-family="Times,serif" font-size="14.00">CountryPickerComponent</text>
</g>
<!-- CountryPickerModule -->
<g id="node2" class="node">
<title>CountryPickerModule</title>
<polygon fill="#8dd3c7" stroke="black" points="177.71,-149.8 174.71,-153.8 153.71,-153.8 150.71,-149.8 36.29,-149.8 36.29,-113.8 177.71,-113.8 177.71,-149.8"/>
<text text-anchor="middle" x="107" y="-127.6" font-family="Times,serif" font-size="14.00">CountryPickerModule</text>
</g>
<!-- CountryPickerComponent&#45;&gt;CountryPickerModule -->
<g id="edge1" class="edge">
<title>CountryPickerComponent&#45;&gt;CountryPickerModule</title>
<path fill="none" stroke="black" d="M107,-84.91C107,-84.91 107,-103.79 107,-103.79"/>
<polygon fill="black" stroke="black" points="103.5,-103.79 107,-113.79 110.5,-103.79 103.5,-103.79"/>
</g>
<!-- CountryPickerComponent  -->
<g id="node3" class="node">
<title>CountryPickerComponent </title>
<polygon fill="#fb8072" stroke="black" points="190.49,-214.8 23.51,-214.8 23.51,-178.8 190.49,-178.8 190.49,-214.8"/>
<text text-anchor="middle" x="107" y="-192.6" font-family="Times,serif" font-size="14.00">CountryPickerComponent </text>
</g>
<!-- CountryPickerModule&#45;&gt;CountryPickerComponent  -->
<g id="edge2" class="edge">
<title>CountryPickerModule&#45;&gt;CountryPickerComponent </title>
<path fill="none" stroke="black" stroke-dasharray="5,2" d="M107,-149.91C107,-149.91 107,-168.79 107,-168.79"/>
<polygon fill="black" stroke="black" points="103.5,-168.79 107,-178.79 110.5,-168.79 103.5,-168.79"/>
</g>
</g>
</svg>
