<?xml version="1.0" encoding="UTF-8" standalone="no"?>
<!DOCTYPE svg PUBLIC "-//W3C//DTD SVG 1.1//EN"
 "http://www.w3.org/Graphics/SVG/1.1/DTD/svg11.dtd">
<!-- Generated by graphviz version 5.0.0 (20220707.1540)
 -->
<!-- Title: dependencies Pages: 1 -->
<svg width="328pt" height="247pt"
 viewBox="0.00 0.00 328.00 246.80" xmlns="http://www.w3.org/2000/svg" xmlns:xlink="http://www.w3.org/1999/xlink">
<g id="graph0" class="graph" transform="scale(1 1) rotate(0) translate(4 242.8)">
<title>dependencies</title>
<polygon fill="white" stroke="transparent" points="-4,4 -4,-242.8 324,-242.8 324,4 -4,4"/>
<text text-anchor="middle" x="160" y="-8.2" font-family="sans-serif" font-size="14.00">dependencies</text>
<g id="clust1" class="cluster">
<title>cluster_AppModule</title>
<polygon fill="none" stroke="black" stroke-dasharray="1,5" points="8,-32.8 8,-230.8 312,-230.8 312,-32.8 8,-32.8"/>
</g>
<g id="clust4" class="cluster">
<title>cluster_AppModule_imports</title>
<polygon fill="none" stroke="black" points="146,-40.8 146,-92.8 304,-92.8 304,-40.8 146,-40.8"/>
</g>
<g id="clust6" class="cluster">
<title>cluster_AppModule_bootstrap</title>
<polygon fill="none" stroke="black" points="89,-170.8 89,-222.8 213,-222.8 213,-170.8 89,-170.8"/>
</g>
<g id="clust2" class="cluster">
<title>cluster_AppModule_declarations</title>
<polygon fill="none" stroke="black" points="16,-40.8 16,-92.8 138,-92.8 138,-40.8 16,-40.8"/>
</g>
<!-- AppComponent -->
<g id="node1" class="node">
<title>AppComponent</title>
<polygon fill="#ffffb3" stroke="black" points="129.94,-84.8 24.06,-84.8 24.06,-48.8 129.94,-48.8 129.94,-84.8"/>
<text text-anchor="middle" x="77" y="-62.6" font-family="Times,serif" font-size="14.00">AppComponent</text>
</g>
<!-- AppModule -->
<g id="node2" class="node">
<title>AppModule</title>
<polygon fill="#8dd3c7" stroke="black" points="192.66,-149.8 189.66,-153.8 168.66,-153.8 165.66,-149.8 109.34,-149.8 109.34,-113.8 192.66,-113.8 192.66,-149.8"/>
<text text-anchor="middle" x="151" y="-127.6" font-family="Times,serif" font-size="14.00">AppModule</text>
</g>
<!-- AppComponent&#45;&gt;AppModule -->
<g id="edge1" class="edge">
<title>AppComponent&#45;&gt;AppModule</title>
<path fill="none" stroke="black" d="M119.44,-84.91C119.44,-84.91 119.44,-103.79 119.44,-103.79"/>
<polygon fill="black" stroke="black" points="115.94,-103.79 119.44,-113.79 122.94,-103.79 115.94,-103.79"/>
</g>
<!-- AppComponent  -->
<g id="node4" class="node">
<title>AppComponent </title>
<polygon fill="#80b1d3" stroke="black" points="205.44,-214.8 96.56,-214.8 96.56,-178.8 205.44,-178.8 205.44,-214.8"/>
<text text-anchor="middle" x="151" y="-192.6" font-family="Times,serif" font-size="14.00">AppComponent </text>
</g>
<!-- AppModule&#45;&gt;AppComponent  -->
<g id="edge3" class="edge">
<title>AppModule&#45;&gt;AppComponent </title>
<path fill="none" stroke="black" stroke-dasharray="1,5" d="M151,-149.91C151,-149.91 151,-168.79 151,-168.79"/>
<polygon fill="black" stroke="black" points="147.5,-168.79 151,-178.79 154.5,-168.79 147.5,-168.79"/>
</g>
<!-- CountryPickerModule -->
<g id="node3" class="node">
<title>CountryPickerModule</title>
<polygon fill="#8dd3c7" stroke="black" points="295.71,-84.8 292.71,-88.8 271.71,-88.8 268.71,-84.8 154.29,-84.8 154.29,-48.8 295.71,-48.8 295.71,-84.8"/>
<text text-anchor="middle" x="225" y="-62.6" font-family="Times,serif" font-size="14.00">CountryPickerModule</text>
</g>
<!-- CountryPickerModule&#45;&gt;AppModule -->
<g id="edge2" class="edge">
<title>CountryPickerModule&#45;&gt;AppModule</title>
<path fill="none" stroke="black" d="M173.61,-84.91C173.61,-84.91 173.61,-103.79 173.61,-103.79"/>
<polygon fill="black" stroke="black" points="170.11,-103.79 173.61,-113.79 177.11,-103.79 170.11,-103.79"/>
</g>
</g>
</svg>
